<svg width="71" height="78" viewBox="0 0 71 78" fill="none" xmlns="http://www.w3.org/2000/svg">
<path fill-rule="evenodd" clip-rule="evenodd" d="M20.8494 9.68639C26.7072 4.30221 30.4126 0.865425 31.0438 0.231078C31.1833 0.0909005 31.3287 0.00484157 31.3668 0.0398859C31.4359 0.103542 30.4004 1.61466 22.2856 13.292C19.9341 16.6755 18.0103 19.5478 18.0103 19.6749C18.0103 20.0744 26.1975 29.8941 26.419 29.7606C26.535 29.6905 28.0298 27.6664 29.741 25.2625C34.3736 18.754 35.3353 17.4536 35.5156 17.4536C35.6058 17.4536 37.64 20.1973 40.0365 23.5509C42.4327 26.9043 44.4828 29.7018 44.5921 29.7679C44.8056 29.8966 52.9887 20.0604 52.9887 19.6749C52.9887 19.5478 51.0649 16.6755 48.7134 13.292C40.7658 1.85532 39.5879 0.14014 39.5879 0.00462053C39.5879 -0.0699041 40.5332 0.766058 41.6889 1.86241C42.8445 2.95855 46.6517 6.48272 50.1495 9.69371C53.6474 12.9047 57.3996 16.3723 58.4876 17.3993L60.4661 19.2666L53.5365 27.677C47.0058 35.6035 46.6369 36.099 47.1289 36.2848C47.4162 36.3933 49.4232 37.1991 51.5891 38.0754C53.7551 38.9515 55.5514 39.6358 55.581 39.5956C55.6107 39.5555 57.3181 37.5265 59.3754 35.0867C61.4328 32.6469 64.8384 28.6046 66.9433 26.1038C69.0483 23.603 70.8718 21.4571 70.9955 21.3351C71.2742 21.0603 58.3845 45.9344 58.0774 46.264C58.0326 46.3119 55.8217 45.4766 53.1643 44.4076C48.3109 42.4553 47.4293 42.0929 47.3743 42.1878C47.3588 42.2145 47.4087 42.2774 47.4539 42.3513C47.5473 42.5034 50.5125 46.138 54.0435 50.4283L60.4632 58.2288L58.4862 60.0935C57.3989 61.1191 54.5162 63.7904 52.0802 66.0299C47.1771 70.5373 44.0047 73.4744 41.3482 75.9652C40.3799 76.873 39.5879 77.5582 39.5879 77.4874C39.5879 77.3597 41.1955 75.0177 48.9428 63.8605C51.168 60.6557 52.9887 57.9331 52.9887 57.8102C52.9887 57.4299 44.8028 47.5977 44.5921 47.7248C44.4828 47.7909 42.4327 50.5885 40.0365 53.9418C37.64 57.2955 35.6058 60.0391 35.5156 60.0391C35.3353 60.0391 34.3736 58.7387 29.741 52.2302C28.0298 49.8264 26.535 47.8022 26.419 47.7321C26.2002 47.6002 18.0103 57.4159 18.0103 57.8102C18.0103 57.9331 19.831 60.6557 22.0562 63.8605C29.8235 75.0467 31.4111 77.3597 31.4111 77.4901C31.4111 77.5622 30.5169 76.7743 29.4237 75.7392C28.3307 74.7041 24.5233 71.181 20.963 67.9101C17.4027 64.6392 13.5992 61.1219 12.5107 60.0939L10.5317 58.2248L16.9537 50.4263C20.4858 46.1372 23.4519 42.5034 23.5453 42.3513C23.5905 42.2774 23.6404 42.2145 23.6248 42.1878C23.5697 42.0928 22.6883 42.455 17.8347 44.4076C15.1773 45.4766 12.9659 46.3119 12.9207 46.264C12.6218 45.9462 -0.271379 21.0621 0.00436022 21.3351C0.127466 21.4571 1.92954 23.5779 4.00894 26.0483C6.08811 28.5185 9.49214 32.5608 11.5734 35.0312C13.6543 37.5014 15.3812 39.5539 15.4108 39.5919C15.4403 39.63 17.2383 38.9458 19.4062 38.0712C21.5742 37.1964 23.5828 36.3924 23.8701 36.2842C24.3618 36.099 23.9914 35.6012 17.4624 27.677L10.5329 19.2666L12.5114 17.3993C13.5994 16.3723 17.3516 12.9016 20.8494 9.68639ZM44.1405 39.0491C44.1405 39.0491 38.9578 31.1697 37.6399 29.2649C36.9227 28.228 36.107 27.1079 35.8274 26.7759L35.3191 26.1723L34.7211 27.1086C34.0256 28.1978 31.1767 32.2408 28.4677 35.9837C27.4265 37.422 26.5745 38.6841 26.5745 38.7881C26.5745 38.8921 27.6734 40.5197 29.0162 42.4048C30.359 44.2898 32.3266 47.0916 33.3885 48.6311C34.4503 50.1704 35.3702 51.4289 35.4327 51.4278C35.569 51.4249 43.8679 39.6276 44.1405 39.0491Z" fill="#34FF01"/>
</svg>
